# xmcd CD database file
#
# Track frame offsets:
#	150
#	27792
#	59735
#	88472
#	105872
#	128320
#	147992
#	194225
#	227000
#	269140
#
# Disc length: 4440 seconds
#
# Revision: 0
# Processed by: cddbd v1.5PL3 Copyright (c) Steve Scherf et al.
# Submitted via: CDex 1.51
#
DISCID=9311560a
DTITLE=Vas - Feast of Silence
DYEAR=2004
DGENRE=New Age
TTITLE0=Amrita
TTITLE1=In our Faith
TTITLE2=Mandara
TTITLE3=Izgrejala
TTITLE4=Mosksha
TTITLE5=The Reaper and The Flowers
TTITLE6=Bardo
TTITLE7=Feast of Silence
TTITLE8=Kala Basa
TTITLE9=Data Track
EXTD=YEAR: 2004
EXTT0=
EXTT1=
EXTT2=
EXTT3=
EXTT4=
EXTT5=
EXTT6=
EXTT7=
EXTT8=
EXTT9=
PLAYORDER=
